<svg id="visual" viewBox="0 0 960 540" width="960" height="540" xmlns="http://www.w3.org/2000/svg" xmlns:xlink="http://www.w3.org/1999/xlink" version="1.1"><path d="M0 209L32 220.2C64 231.3 128 253.7 192 262.5C256 271.3 320 266.7 384 260C448 253.3 512 244.7 576 242.7C640 240.7 704 245.3 768 240.3C832 235.3 896 220.7 928 213.3L960 206L960 541L928 541C896 541 832 541 768 541C704 541 640 541 576 541C512 541 448 541 384 541C320 541 256 541 192 541C128 541 64 541 32 541L0 541Z" fill="#8be57a"></path><path d="M0 275L32 274C64 273 128 271 192 278.5C256 286 320 303 384 313.7C448 324.3 512 328.7 576 321C640 313.3 704 293.7 768 295.5C832 297.3 896 320.7 928 332.3L960 344L960 541L928 541C896 541 832 541 768 541C704 541 640 541 576 541C512 541 448 541 384 541C320 541 256 541 192 541C128 541 64 541 32 541L0 541Z" fill="#5bc851"></path><path d="M0 395L32 399.8C64 404.7 128 414.3 192 413.5C256 412.7 320 401.3 384 398.8C448 396.3 512 402.7 576 408C640 413.3 704 417.7 768 410.2C832 402.7 896 383.3 928 373.7L960 364L960 541L928 541C896 541 832 541 768 541C704 541 640 541 576 541C512 541 448 541 384 541C320 541 256 541 192 541C128 541 64 541 32 541L0 541Z" fill="#13ac24"></path></svg>