<svg id="visual" viewBox="0 0 960 540" width="960" height="540" xmlns="http://www.w3.org/2000/svg" xmlns:xlink="http://www.w3.org/1999/xlink" version="1.1"><rect x="0" y="0" width="960" height="540" fill="#ffffff"></rect><path d="M0 436L13.3 434.7C26.7 433.3 53.3 430.7 80 434.2C106.7 437.7 133.3 447.3 160 453C186.7 458.7 213.3 460.3 240 460.2C266.7 460 293.3 458 320 456.2C346.7 454.3 373.3 452.7 400 451C426.7 449.3 453.3 447.7 480 441.5C506.7 435.3 533.3 424.7 560 424C586.7 423.3 613.3 432.7 640 437.5C666.7 442.3 693.3 442.7 720 438.8C746.7 435 773.3 427 800 428.8C826.7 430.7 853.3 442.3 880 437.7C906.7 433 933.3 412 946.7 401.5L960 391L960 541L946.7 541C933.3 541 906.7 541 880 541C853.3 541 826.7 541 800 541C773.3 541 746.7 541 720 541C693.3 541 666.7 541 640 541C613.3 541 586.7 541 560 541C533.3 541 506.7 541 480 541C453.3 541 426.7 541 400 541C373.3 541 346.7 541 320 541C293.3 541 266.7 541 240 541C213.3 541 186.7 541 160 541C133.3 541 106.7 541 80 541C53.3 541 26.7 541 13.3 541L0 541Z" fill="#87e284"></path><path d="M0 440L13.3 436.5C26.7 433 53.3 426 80 426C106.7 426 133.3 433 160 442.8C186.7 452.7 213.3 465.3 240 465.5C266.7 465.7 293.3 453.3 320 441.5C346.7 429.7 373.3 418.3 400 416.3C426.7 414.3 453.3 421.7 480 431.8C506.7 442 533.3 455 560 452.5C586.7 450 613.3 432 640 421.8C666.7 411.7 693.3 409.3 720 409.2C746.7 409 773.3 411 800 412.3C826.7 413.7 853.3 414.3 880 420.2C906.7 426 933.3 437 946.7 442.5L960 448L960 541L946.7 541C933.3 541 906.7 541 880 541C853.3 541 826.7 541 800 541C773.3 541 746.7 541 720 541C693.3 541 666.7 541 640 541C613.3 541 586.7 541 560 541C533.3 541 506.7 541 480 541C453.3 541 426.7 541 400 541C373.3 541 346.7 541 320 541C293.3 541 266.7 541 240 541C213.3 541 186.7 541 160 541C133.3 541 106.7 541 80 541C53.3 541 26.7 541 13.3 541L0 541Z" fill="#75d078"></path><path d="M0 433L13.3 436.3C26.7 439.7 53.3 446.3 80 452.8C106.7 459.3 133.3 465.7 160 464.7C186.7 463.7 213.3 455.3 240 449.2C266.7 443 293.3 439 320 439.3C346.7 439.7 373.3 444.3 400 449.2C426.7 454 453.3 459 480 465.3C506.7 471.7 533.3 479.3 560 474.5C586.7 469.7 613.3 452.3 640 448.3C666.7 444.3 693.3 453.7 720 457.8C746.7 462 773.3 461 800 459.5C826.7 458 853.3 456 880 456.5C906.7 457 933.3 460 946.7 461.5L960 463L960 541L946.7 541C933.3 541 906.7 541 880 541C853.3 541 826.7 541 800 541C773.3 541 746.7 541 720 541C693.3 541 666.7 541 640 541C613.3 541 586.7 541 560 541C533.3 541 506.7 541 480 541C453.3 541 426.7 541 400 541C373.3 541 346.7 541 320 541C293.3 541 266.7 541 240 541C213.3 541 186.7 541 160 541C133.3 541 106.7 541 80 541C53.3 541 26.7 541 13.3 541L0 541Z" fill="#62bf6c"></path><path d="M0 464L13.3 466.7C26.7 469.3 53.3 474.7 80 479.8C106.7 485 133.3 490 160 490.5C186.7 491 213.3 487 240 487.5C266.7 488 293.3 493 320 495.7C346.7 498.3 373.3 498.7 400 489.8C426.7 481 453.3 463 480 455C506.7 447 533.3 449 560 451.3C586.7 453.7 613.3 456.3 640 462.3C666.7 468.3 693.3 477.7 720 483.7C746.7 489.7 773.3 492.3 800 493.5C826.7 494.7 853.3 494.3 880 486.8C906.7 479.3 933.3 464.7 946.7 457.3L960 450L960 541L946.7 541C933.3 541 906.7 541 880 541C853.3 541 826.7 541 800 541C773.3 541 746.7 541 720 541C693.3 541 666.7 541 640 541C613.3 541 586.7 541 560 541C533.3 541 506.7 541 480 541C453.3 541 426.7 541 400 541C373.3 541 346.7 541 320 541C293.3 541 266.7 541 240 541C213.3 541 186.7 541 160 541C133.3 541 106.7 541 80 541C53.3 541 26.7 541 13.3 541L0 541Z" fill="#50ae60"></path><path d="M0 493L13.3 496C26.7 499 53.3 505 80 502.5C106.7 500 133.3 489 160 484.2C186.7 479.3 213.3 480.7 240 482C266.7 483.3 293.3 484.7 320 482.8C346.7 481 373.3 476 400 474.3C426.7 472.7 453.3 474.3 480 477.2C506.7 480 533.3 484 560 486.5C586.7 489 613.3 490 640 493.5C666.7 497 693.3 503 720 500.2C746.7 497.3 773.3 485.7 800 484.3C826.7 483 853.3 492 880 493C906.7 494 933.3 487 946.7 483.5L960 480L960 541L946.7 541C933.3 541 906.7 541 880 541C853.3 541 826.7 541 800 541C773.3 541 746.7 541 720 541C693.3 541 666.7 541 640 541C613.3 541 586.7 541 560 541C533.3 541 506.7 541 480 541C453.3 541 426.7 541 400 541C373.3 541 346.7 541 320 541C293.3 541 266.7 541 240 541C213.3 541 186.7 541 160 541C133.3 541 106.7 541 80 541C53.3 541 26.7 541 13.3 541L0 541Z" fill="#3d9d54"></path><path d="M0 494L13.3 493.5C26.7 493 53.3 492 80 494C106.7 496 133.3 501 160 500.7C186.7 500.3 213.3 494.7 240 493.5C266.7 492.3 293.3 495.7 320 496.2C346.7 496.7 373.3 494.3 400 493.7C426.7 493 453.3 494 480 496.5C506.7 499 533.3 503 560 501.2C586.7 499.3 613.3 491.7 640 489.2C666.7 486.7 693.3 489.3 720 490.3C746.7 491.3 773.3 490.7 800 491.3C826.7 492 853.3 494 880 499.5C906.7 505 933.3 514 946.7 518.5L960 523L960 541L946.7 541C933.3 541 906.7 541 880 541C853.3 541 826.7 541 800 541C773.3 541 746.7 541 720 541C693.3 541 666.7 541 640 541C613.3 541 586.7 541 560 541C533.3 541 506.7 541 480 541C453.3 541 426.7 541 400 541C373.3 541 346.7 541 320 541C293.3 541 266.7 541 240 541C213.3 541 186.7 541 160 541C133.3 541 106.7 541 80 541C53.3 541 26.7 541 13.3 541L0 541Z" fill="#298d48"></path><path d="M0 507L13.3 510.7C26.7 514.3 53.3 521.7 80 522.7C106.7 523.7 133.3 518.3 160 514C186.7 509.7 213.3 506.3 240 506.7C266.7 507 293.3 511 320 515.5C346.7 520 373.3 525 400 524C426.7 523 453.3 516 480 515.7C506.7 515.3 533.3 521.7 560 522C586.7 522.3 613.3 516.7 640 513.3C666.7 510 693.3 509 720 511.2C746.7 513.3 773.3 518.7 800 522.7C826.7 526.7 853.3 529.3 880 527.8C906.7 526.3 933.3 520.7 946.7 517.8L960 515L960 541L946.7 541C933.3 541 906.7 541 880 541C853.3 541 826.7 541 800 541C773.3 541 746.7 541 720 541C693.3 541 666.7 541 640 541C613.3 541 586.7 541 560 541C533.3 541 506.7 541 480 541C453.3 541 426.7 541 400 541C373.3 541 346.7 541 320 541C293.3 541 266.7 541 240 541C213.3 541 186.7 541 160 541C133.3 541 106.7 541 80 541C53.3 541 26.7 541 13.3 541L0 541Z" fill="#0d7d3d"></path></svg>