<svg id="visual" viewBox="0 0 960 540" width="960" height="540" xmlns="http://www.w3.org/2000/svg" xmlns:xlink="http://www.w3.org/1999/xlink" version="1.1"><rect x="0" y="0" width="960" height="540" fill="#333333"></rect><path d="M0 219L17.8 227.5C35.7 236 71.3 253 106.8 248.5C142.3 244 177.7 218 213.2 201.3C248.7 184.7 284.3 177.3 320 188.3C355.7 199.3 391.3 228.7 426.8 233.2C462.3 237.7 497.7 217.3 533.2 205.8C568.7 194.3 604.3 191.7 640 202.3C675.7 213 711.3 237 746.8 241.5C782.3 246 817.7 231 853.2 224.3C888.7 217.7 924.3 219.3 942.2 220.2L960 221L960 541L942.2 541C924.3 541 888.7 541 853.2 541C817.7 541 782.3 541 746.8 541C711.3 541 675.7 541 640 541C604.3 541 568.7 541 533.2 541C497.7 541 462.3 541 426.8 541C391.3 541 355.7 541 320 541C284.3 541 248.7 541 213.2 541C177.7 541 142.3 541 106.8 541C71.3 541 35.7 541 17.8 541L0 541Z" fill="#b6f4b7"></path><path d="M0 204L17.8 217.3C35.7 230.7 71.3 257.3 106.8 262.7C142.3 268 177.7 252 213.2 263.8C248.7 275.7 284.3 315.3 320 309.7C355.7 304 391.3 253 426.8 251.8C462.3 250.7 497.7 299.3 533.2 307.5C568.7 315.7 604.3 283.3 640 284.8C675.7 286.3 711.3 321.7 746.8 323.7C782.3 325.7 817.7 294.3 853.2 276.3C888.7 258.3 924.3 253.7 942.2 251.3L960 249L960 541L942.2 541C924.3 541 888.7 541 853.2 541C817.7 541 782.3 541 746.8 541C711.3 541 675.7 541 640 541C604.3 541 568.7 541 533.2 541C497.7 541 462.3 541 426.8 541C391.3 541 355.7 541 320 541C284.3 541 248.7 541 213.2 541C177.7 541 142.3 541 106.8 541C71.3 541 35.7 541 17.8 541L0 541Z" fill="#8ce68c"></path><path d="M0 362L17.8 364.5C35.7 367 71.3 372 106.8 382.8C142.3 393.7 177.7 410.3 213.2 407.8C248.7 405.3 284.3 383.7 320 367.5C355.7 351.3 391.3 340.7 426.8 329.7C462.3 318.7 497.7 307.3 533.2 308C568.7 308.7 604.3 321.3 640 344.5C675.7 367.7 711.3 401.3 746.8 408.2C782.3 415 817.7 395 853.2 371C888.7 347 924.3 319 942.2 305L960 291L960 541L942.2 541C924.3 541 888.7 541 853.2 541C817.7 541 782.3 541 746.8 541C711.3 541 675.7 541 640 541C604.3 541 568.7 541 533.2 541C497.7 541 462.3 541 426.8 541C391.3 541 355.7 541 320 541C284.3 541 248.7 541 213.2 541C177.7 541 142.3 541 106.8 541C71.3 541 35.7 541 17.8 541L0 541Z" fill="#5dd85d"></path><path d="M0 525L17.8 515.5C35.7 506 71.3 487 106.8 484.5C142.3 482 177.7 496 213.2 504.8C248.7 513.7 284.3 517.3 320 512.3C355.7 507.3 391.3 493.7 426.8 480.8C462.3 468 497.7 456 533.2 457.3C568.7 458.7 604.3 473.3 640 467.7C675.7 462 711.3 436 746.8 437.2C782.3 438.3 817.7 466.7 853.2 465.5C888.7 464.3 924.3 433.7 942.2 418.3L960 403L960 541L942.2 541C924.3 541 888.7 541 853.2 541C817.7 541 782.3 541 746.8 541C711.3 541 675.7 541 640 541C604.3 541 568.7 541 533.2 541C497.7 541 462.3 541 426.8 541C391.3 541 355.7 541 320 541C284.3 541 248.7 541 213.2 541C177.7 541 142.3 541 106.8 541C71.3 541 35.7 541 17.8 541L0 541Z" fill="#05c822"></path></svg>